<?xml version="1.0" standalone="no"?>
<!DOCTYPE svg PUBLIC "-//W3C//DTD SVG 20010904//EN"
 "http://www.w3.org/TR/2001/REC-SVG-20010904/DTD/svg10.dtd">
<svg version="1.0" xmlns="http://www.w3.org/2000/svg"
 width="865.000000pt" height="264.000000pt" viewBox="0 0 865.000000 264.000000"
 preserveAspectRatio="xMidYMid meet">

<g transform="translate(0.000000,264.000000) scale(0.100000,-0.100000)"
fill="#000000" stroke="none">
<path d="M3161 1919 c-153 -26 -251 -114 -251 -226 0 -85 54 -136 275 -261
177 -99 265 -187 265 -263 0 -80 -78 -124 -220 -124 -108 1 -178 30 -234 99
-32 38 -44 46 -72 46 l-34 0 0 -61 0 -60 54 -25 c113 -52 316 -71 422 -39 162
48 241 179 185 308 -19 45 -28 52 -60 48 -7 -2 -10 2 -7 8 8 12 -32 51 -51 51
-7 0 -13 6 -13 13 0 18 -56 61 -152 119 -222 134 -257 176 -209 254 24 39 95
74 152 76 76 1 129 -21 186 -79 40 -41 59 -53 83 -53 l30 0 0 60 0 59 -65 20
c-50 16 -228 46 -230 40 0 -1 -24 -5 -54 -10z m304 -529 c3 -5 -1 -10 -10 -10
-9 0 -13 5 -10 10 3 6 8 10 10 10 2 0 7 -4 10 -10z"/>
<path d="M3663 1915 c-3 -9 2 -24 10 -33 29 -32 55 -106 62 -174 5 -47 11 -65
19 -60 6 4 31 14 56 22 l45 15 9 107 c5 58 6 113 3 122 -9 23 -195 24 -204 1z"/>
<path d="M5555 1920 c-4 -6 5 -29 20 -50 l27 -39 74 1 c71 0 73 1 76 27 l3 26
120 3 c130 3 179 -6 222 -42 30 -25 89 -41 98 -27 8 13 -47 65 -92 87 -33 16
-70 19 -289 22 -185 3 -253 1 -259 -8z"/>
<path d="M6437 1924 c-13 -13 -7 -32 24 -83 18 -28 39 -52 48 -52 9 -1 34 -2
56 -3 l40 -1 0 70 0 70 -80 3 c-45 1 -84 0 -88 -4z"/>
<path d="M4320 1866 c-73 -24 -132 -63 -152 -100 -8 -14 1 -11 30 12 65 52
126 74 219 80 l84 5 -7 -41 -6 -41 28 7 c16 4 53 7 81 7 44 0 53 3 53 18 0 10
-11 29 -25 42 -23 24 -29 25 -147 24 -68 -1 -139 -6 -158 -13z"/>
<path d="M6827 1860 c-53 -42 -43 -103 20 -113 21 -3 49 -9 62 -13 17 -5 22
-4 17 4 -4 7 -1 12 7 12 34 0 36 68 2 104 -29 32 -72 34 -108 6z"/>
<path d="M1390 1730 c-8 -5 -12 -11 -10 -13 29 -23 59 -37 82 -37 37 0 36 21
-3 43 -35 19 -48 21 -69 7z"/>
<path d="M7845 1627 c-91 -36 -130 -76 -141 -145 -10 -66 27 -111 166 -195 47
-29 109 -75 138 -103 47 -45 53 -56 50 -85 -4 -46 -50 -69 -136 -69 -72 0
-102 13 -151 64 -54 56 -85 44 -71 -29 4 -26 12 -32 65 -48 34 -11 104 -21
162 -24 91 -5 106 -3 147 17 63 30 91 72 90 135 -1 96 -50 150 -225 250 -143
82 -167 104 -153 142 13 37 66 66 119 65 50 0 89 -19 129 -61 43 -45 66 -42
66 9 0 46 -19 60 -108 79 -65 14 -108 13 -147 -2z"/>
<path d="M7408 1613 c7 -3 16 -2 19 1 4 3 -2 6 -13 5 -11 0 -14 -3 -6 -6z"/>
<path d="M1219 1425 c-11 -49 -10 -58 4 -72 15 -16 18 -14 32 20 20 48 19 70
-4 91 -19 17 -20 16 -32 -39z"/>
<path d="M7420 1298 c0 -4 -7 -8 -15 -8 -9 0 -25 -8 -35 -18 -20 -18 -19 -19
24 -51 44 -34 77 -71 89 -104 18 -47 -45 -87 -138 -87 -69 0 -110 17 -154 64
-49 51 -71 48 -71 -7 0 -38 4 -46 26 -56 94 -42 279 -54 350 -22 108 49 124
174 34 264 -32 31 -44 37 -74 35 -20 -1 -36 -6 -36 -10z"/>
<path d="M3735 1204 c-7 -69 -35 -143 -61 -165 -8 -6 -14 -20 -14 -30 0 -17 9
-19 114 -19 66 0 117 4 121 10 3 6 15 10 26 10 24 0 24 2 -6 46 -24 36 -55
121 -55 153 0 11 -16 20 -52 29 -28 6 -55 17 -59 23 -3 6 -10 -20 -14 -57z"/>
<path d="M4140 1145 c24 -38 26 -87 5 -105 -8 -7 -15 -21 -15 -31 0 -18 10
-19 140 -19 119 0 140 2 140 15 0 9 -21 28 -46 43 -26 15 -69 47 -95 71 -27
24 -49 40 -49 36 0 -4 -7 -2 -16 6 -13 10 -17 10 -25 -2 -8 -12 -10 -12 -18 0
-5 8 -17 16 -25 17 -14 2 -14 -3 4 -31z"/>
<path d="M6908 1174 c-2 -2 -18 -4 -36 -6 -18 -1 -32 -7 -32 -13 0 -5 -14 -39
-30 -73 -17 -35 -30 -70 -30 -78 0 -11 23 -14 115 -14 128 0 131 2 98 63 -10
18 -25 52 -34 76 -13 38 -37 59 -51 45z"/>
<path d="M6570 1130 c0 -4 -11 -6 -25 -5 -14 2 -33 1 -43 -1 -17 -5 -72 -97
-72 -122 0 -9 33 -12 125 -12 101 0 125 3 125 14 0 29 -65 124 -87 129 -13 2
-23 1 -23 -3z"/>
<path d="M4540 1123 c-17 -4 -70 -95 -70 -118 0 -13 17 -15 118 -13 132 3 133
5 87 78 -17 27 -32 39 -57 43 -18 3 -40 7 -48 10 -8 3 -22 3 -30 0z"/>
<path d="M6220 1100 c-25 -4 -72 -21 -104 -39 l-59 -32 -151 3 -151 3 -5 25
c-5 24 -8 25 -75 25 -68 0 -71 -1 -97 -35 -50 -63 -59 -61 275 -58 l304 3 48
30 c48 30 83 70 68 77 -4 2 -28 1 -53 -2z"/>
<path d="M4845 1080 c-3 -10 -14 -25 -25 -35 -11 -10 -20 -26 -20 -37 0 -17
10 -18 135 -18 150 0 155 3 113 61 -26 34 -77 51 -148 48 -37 -2 -51 -7 -55
-19z"/>
<path d="M5223 1056 c-18 -15 -33 -37 -33 -47 0 -18 9 -19 135 -19 122 0 135
2 135 18 -1 9 -11 29 -23 45 -21 25 -29 28 -103 30 -74 2 -81 0 -111 -27z"/>
<path d="M442 795 c-14 -30 -16 -55 -4 -55 9 0 42 54 42 69 0 21 -27 11 -38
-14z"/>
<path d="M4000 751 c0 -6 4 -13 10 -16 6 -3 7 1 4 9 -7 18 -14 21 -14 7z"/>
<path d="M3415 720 c3 -5 8 -10 11 -10 2 0 4 5 4 10 0 6 -5 10 -11 10 -5 0 -7
-4 -4 -10z"/>
<path d="M3690 719 c0 -5 5 -7 10 -4 6 3 10 8 10 11 0 2 -4 4 -10 4 -5 0 -10
-5 -10 -11z"/>
<path d="M3993 703 c9 -2 23 -2 30 0 6 3 -1 5 -18 5 -16 0 -22 -2 -12 -5z"/>
</g>
</svg>
